{
  "accessors": [
    {
      "bufferView": 2,
      "componentType": 5126,
      "count": 7215,
      "max": [
        2.1848669052124023,
        4.016957759857178,
        0.40832817554473877
      ],
      "min": [
        -1.9931185245513916,
        -0.5648722052574158,
        -0.8795168995857239
      ],
      "type": "VEC3"
    },
    {
      "bufferView": 2,
      "byteOffset": 86580,
      "componentType": 5126,
      "count": 7215,
      "max": [
        1.0,
        1.0,
        1.0
      ],
      "min": [
        -1.0,
        -1.0,
        -1.0
      ],
      "type": "VEC3"
    },
    {
      "bufferView": 3,
      "componentType": 5126,
      "count": 7215,
      "max": [
        1.0,
        1.0,
        1.0,
        1.0
      ],
      "min": [
        -1.0,
        -1.0,
        -1.0,
        -1.0
      ],
      "type": "VEC4"
    },
    {
      "bufferView": 1,
      "componentType": 5126,
      "count": 7215,
      "max": [
        0.9994803071022034,
        0.9592928290367126
      ],
      "min": [
        0.0005196740385144949,
        0.0005196740385144949
      ],
      "type": "VEC2"
    },
    {
      "bufferView": 1,
      "byteOffset": 57720,
      "componentType": 5126,
      "count": 7215,
      "max": [
        0.9994803071022034,
        0.9592928290367126
      ],
      "min": [
        0.0005196740385144949,
        0.0005196740385144949
      ],
      "type": "VEC2"
    },
    {
      "bufferView": 0,
      "componentType": 5125,
      "count": 20700,
      "type": "SCALAR"
    },
    {
      "bufferView": 2,
      "byteOffset": 173160,
      "componentType": 5126,
      "count": 20,
      "max": [
        -0.8781405091285706,
        -0.43906477093696594,
        0.2854267954826355
      ],
      "min": [
        -1.3839778900146484,
        -0.5388259887695313,
        0.08652728796005249
      ],
      "type": "VEC3"
    },
    {
      "bufferView": 2,
      "byteOffset": 173400,
      "componentType": 5126,
      "count": 20,
      "max": [
        0.9995519518852234,
        1.0,
        0.9993587136268616
      ],
      "min": [
        -0.0358075313270092,
        -1.0,
        -0.9993587136268616
      ],
      "type": "VEC3"
    },
    {
      "bufferView": 1,
      "byteOffset": 115440,
      "componentType": 5126,
      "count": 20,
      "max": [
        0.2624053955078125,
        0.841089129447937
      ],
      "min": [
        0.15551750361919403,
        0.6500167846679688
      ],
      "type": "VEC2"
    },
    {
      "bufferView": 0,
      "byteOffset": 82800,
      "componentType": 5125,
      "count": 30,
      "type": "SCALAR"
    }
  ],
  "asset": {
    "extras": {
      "author": "zombitt (https://sketchfab.com/zombitt)",
      "license": "CC-BY-4.0 (http://creativecommons.org/licenses/by/4.0/)",
      "source": "https://sketchfab.com/3d-models/augmented-reality-glasses-ac1e58afd7254f128a09592f940f44e5",
      "title": "Augmented reality glasses"
    },
    "generator": "Sketchfab-13.58.0",
    "version": "2.0"
  },
  "bufferViews": [
    {
      "buffer": 0,
      "byteLength": 82920,
      "name": "floatBufferViews",
      "target": 34963
    },
    {
      "buffer": 0,
      "byteLength": 115600,
      "byteOffset": 82920,
      "byteStride": 8,
      "name": "floatBufferViews",
      "target": 34962
    },
    {
      "buffer": 0,
      "byteLength": 173640,
      "byteOffset": 198520,
      "byteStride": 12,
      "name": "floatBufferViews",
      "target": 34962
    },
    {
      "buffer": 0,
      "byteLength": 115440,
      "byteOffset": 372160,
      "byteStride": 16,
      "name": "floatBufferViews",
      "target": 34962
    }
  ],
  "buffers": [
    {
      "byteLength": 487600,
      "uri": "scene.bin"
    }
  ],
  "images": [
    {
      "uri": "textures/Main_baseColor.png"
    },
    {
      "uri": "textures/Main_metallicRoughness.png"
    },
    {
      "uri": "textures/Main_normal.png"
    }
  ],
  "materials": [
    {
      "doubleSided": true,
      "name": "Main",
      "normalTexture": {
        "index": 2
      },
      "occlusionTexture": {
        "index": 1
      },
      "pbrMetallicRoughness": {
        "baseColorTexture": {
          "index": 0
        },
        "metallicRoughnessTexture": {
          "index": 1
        }
      }
    },
    {
      "alphaMode": "BLEND",
      "doubleSided": true,
      "name": "Material",
      "pbrMetallicRoughness": {
        "baseColorFactor": [
          0.7494345424331753,
          0.7395295729606695,
          0.5440330253678516,
          0.21790542599748874
        ],
        "metallicFactor": 0.0,
        "roughnessFactor": 0.17523862929867975
      }
    }
  ],
  "meshes": [
    {
      "name": "Glasses_low_Main_0",
      "primitives": [
        {
          "attributes": {
            "NORMAL": 1,
            "POSITION": 0,
            "TANGENT": 2,
            "TEXCOORD_0": 3,
            "TEXCOORD_1": 4
          },
          "indices": 5,
          "material": 0,
          "mode": 4
        }
      ]
    },
    {
      "name": "Glasses_low_Material_0",
      "primitives": [
        {
          "attributes": {
            "NORMAL": 7,
            "POSITION": 6,
            "TEXCOORD_0": 8
          },
          "indices": 9,
          "material": 1,
          "mode": 4
        }
      ]
    }
  ],
  "nodes": [
    {
      "children": [
        1
      ],
      "matrix": [
        0.04811479151248932,
        0.0,
        0.0,
        0.0,
        0.0,
        1.068362987244094e-17,
        -0.04811479151248932,
        0.0,
        0.0,
        0.04811479151248932,
        1.068362987244094e-17,
        0.0,
        0.0,
        0.0,
        0.0,
        1.0
      ],
      "name": "Sketchfab_model"
    },
    {
      "children": [
        2
      ],
      "matrix": [
        0.009999999776482582,
        0.0,
        0.0,
        0.0,
        0.0,
        0.0,
        0.009999999776482582,
        0.0,
        0.0,
        -0.009999999776482582,
        0.0,
        0.0,
        0.0,
        0.0,
        0.0,
        1.0
      ],
      "name": "12fe50b8550141e5b4203b1cc0f2d150.fbx"
    },
    {
      "children": [
        3
      ],
      "name": "RootNode"
    },
    {
      "children": [
        4,
        5
      ],
      "matrix": [
        100.0,
        -4.098531704434484e-15,
        3.815340383308482e-16,
        0.0,
        3.8153337059527325e-16,
        -1.629206793918314e-05,
        -99.99999999999868,
        0.0,
        4.098531766594215e-15,
        99.99999999999868,
        -1.629206793918314e-05,
        0.0,
        0.0,
        0.0,
        0.0,
        1.0
      ],
      "name": "Glasses_low"
    },
    {
      "mesh": 0,
      "name": "Glasses_low_Main_0"
    },
    {
      "mesh": 1,
      "name": "Glasses_low_Material_0"
    }
  ],
  "samplers": [
    {
      "magFilter": 9729,
      "minFilter": 9987,
      "wrapS": 10497,
      "wrapT": 10497
    }
  ],
  "scene": 0,
  "scenes": [
    {
      "name": "Sketchfab_Scene",
      "nodes": [
        0
      ]
    }
  ],
  "textures": [
    {
      "sampler": 0,
      "source": 0
    },
    {
      "sampler": 0,
      "source": 1
    },
    {
      "sampler": 0,
      "source": 2
    }
  ]
}
